<svg width="25" height="24" viewBox="0 0 25 24" fill="none" xmlns="http://www.w3.org/2000/svg">
<path d="M12 22H4.5C3.39543 22 2.5 21.1046 2.5 20L2.5 4C2.5 2.89543 3.39543 2 4.5 2H20.5C21.6046 2 22.5 2.89543 22.5 4V12.2564" stroke="white" stroke-width="2"/>
<path d="M9.5 7H15.5" stroke="white" stroke-width="2" stroke-linecap="round" stroke-linejoin="round"/>
<path d="M17.5 16H22" stroke="white" stroke-width="2" stroke-linecap="round" stroke-linejoin="round"/>
<path d="M20.5 21H15.5" stroke="white" stroke-width="2" stroke-linecap="round" stroke-linejoin="round"/>
<path d="M17.5 16C17.5 16.5523 17.0523 17 16.5 17C15.9477 17 15.5 16.5523 15.5 16C15.5 15.4477 15.9477 15 16.5 15C17.0523 15 17.5 15.4477 17.5 16Z" fill="white" stroke="white" stroke-width="2"/>
<path d="M20.5 21C20.5 21.5523 20.9477 22 21.5 22C22.0523 22 22.5 21.5523 22.5 21C22.5 20.4477 22.0523 20 21.5 20C20.9477 20 20.5 20.4477 20.5 21Z" fill="white" stroke="white" stroke-width="2"/>
</svg>
