<svg width="25" height="25" viewBox="0 0 25 25" fill="none" xmlns="http://www.w3.org/2000/svg">
<path d="M5.42904 20.5709C4.49905 19.6434 3.76153 18.5412 3.25886 17.3277C2.75619 16.1143 2.49828 14.8134 2.49995 13.5C2.49995 7.97727 6.97722 3.5 12.4999 3.5C18.0227 3.5 22.4999 7.97727 22.4999 13.5C22.5016 14.8134 22.2437 16.1143 21.741 17.3277C21.2383 18.5412 20.5008 19.6434 19.5708 20.5709" stroke="#8D8AC7" stroke-width="2" stroke-linecap="round" stroke-linejoin="round"/>
<path d="M7.99999 17.9999C7.4082 17.4096 6.93891 16.7081 6.61908 15.9358C6.29926 15.1636 6.13521 14.3357 6.13636 13.4999C6.13636 9.98532 8.98545 7.13623 12.5 7.13623" stroke="#8D8AC7" stroke-width="2" stroke-linecap="round"/>
<path d="M12.4999 14.2492V10.6128" stroke="#8D8AC7" stroke-width="2" stroke-linecap="round" stroke-linejoin="round"/>
</svg>
