<svg width="25" height="25" viewBox="0 0 25 25" fill="none" xmlns="http://www.w3.org/2000/svg">
<path d="M14.6737 22.5H10.9219C10.6869 22.5 10.4588 22.4221 10.2757 22.2792C10.0925 22.1362 9.96525 21.9368 9.91495 21.714L9.49546 19.83C8.93585 19.5921 8.40522 19.2946 7.91334 18.943L6.01996 19.528C5.79585 19.5973 5.55404 19.5902 5.33467 19.5078C5.11531 19.4254 4.9316 19.2727 4.81405 19.075L2.93407 15.924C2.81775 15.7261 2.77409 15.4958 2.81022 15.2708C2.84636 15.0457 2.96015 14.8392 3.13299 14.685L4.60173 13.385C4.53494 12.7961 4.53494 12.2019 4.60173 11.613L3.13299 10.316C2.95991 10.1618 2.84596 9.95507 2.80982 9.72978C2.77367 9.50449 2.81748 9.27397 2.93407 9.076L4.80993 5.923C4.92748 5.72532 5.11119 5.57259 5.33055 5.49019C5.54991 5.40778 5.79173 5.40066 6.01584 5.47L7.90922 6.055C8.16071 5.875 8.42251 5.707 8.69255 5.555C8.95331 5.413 9.22129 5.284 9.49546 5.169L9.91598 3.287C9.96604 3.0642 10.0931 2.86469 10.276 2.72155C10.459 2.57841 10.6869 2.50024 10.9219 2.5H14.6737C14.9087 2.50024 15.1366 2.57841 15.3195 2.72155C15.5025 2.86469 15.6295 3.0642 15.6796 3.287L16.1043 5.17C16.3929 5.294 16.6753 5.433 16.9484 5.588C17.203 5.731 17.4493 5.888 17.6864 6.057L19.5808 5.472C19.8048 5.40292 20.0463 5.41017 20.2655 5.49256C20.4846 5.57495 20.6682 5.72753 20.7857 5.925L22.6615 9.078C22.9006 9.485 22.8182 10 22.4626 10.317L20.9939 11.617C21.0607 12.2059 21.0607 12.8001 20.9939 13.389L22.4626 14.689C22.8182 15.007 22.9006 15.521 22.6615 15.928L20.7857 19.081C20.6681 19.2787 20.4844 19.4314 20.265 19.5138C20.0457 19.5962 19.8039 19.6033 19.5798 19.534L17.6864 18.949C17.1949 19.3003 16.6646 19.5975 16.1053 19.835L15.6796 21.714C15.6293 21.9366 15.5022 22.1359 15.3193 22.2788C15.1363 22.4218 14.9085 22.4998 14.6737 22.5V22.5ZM12.7937 8.5C11.7002 8.5 10.6516 8.92143 9.87843 9.67157C9.10526 10.4217 8.6709 11.4391 8.6709 12.5C8.6709 13.5609 9.10526 14.5783 9.87843 15.3284C10.6516 16.0786 11.7002 16.5 12.7937 16.5C13.8871 16.5 14.9357 16.0786 15.7089 15.3284C16.4821 14.5783 16.9164 13.5609 16.9164 12.5C16.9164 11.4391 16.4821 10.4217 15.7089 9.67157C14.9357 8.92143 13.8871 8.5 12.7937 8.5V8.5Z" stroke="#8D8AC7" stroke-width="2"/>
</svg>
