<svg width="24" height="24" viewBox="0 0 24 24" fill="none" xmlns="http://www.w3.org/2000/svg">
<path d="M2 14C2 12.8954 2.89543 12 4 12H10C11.1046 12 12 12.8954 12 14V20C12 21.1046 11.1046 22 10 22H4C2.89543 22 2 21.1046 2 20V14Z" stroke="white" stroke-width="2"/>
<path d="M6 16H8" stroke="white" stroke-width="2" stroke-linecap="round" stroke-linejoin="round"/>
<path d="M7 4C7 2.89543 7.89543 2 9 2H15C16.1046 2 17 2.89543 17 4V10C17 11.1046 16.1046 12 15 12H9C7.89543 12 7 11.1046 7 10V4Z" stroke="white" stroke-width="2"/>
<path d="M11 6H13" stroke="white" stroke-width="2" stroke-linecap="round" stroke-linejoin="round"/>
<path d="M12 14C12 12.8954 12.8954 12 14 12H20C21.1046 12 22 12.8954 22 14V20C22 21.1046 21.1046 22 20 22H14C12.8954 22 12 21.1046 12 20V14Z" stroke="white" stroke-width="2"/>
<path d="M16 16H18" stroke="white" stroke-width="2" stroke-linecap="round" stroke-linejoin="round"/>
</svg>
